# xmcd
#
# Track frame offsets:
#	150
#	12465
#	28806
#	42904
#	55205
#	71755
#	85129
#	102237
#	114524
#	125251
#	141760
#	153852
#
# Disc length: 2207 seconds
#
# Revision: 0
# Processed by: cddbd v1.5.1PL2 Copyright (c) Steve Scherf et al.
# Submitted via: EasyCDDAExtractor 8.2.3.1
#
DISCID=9d089d0c
DTITLE=Jacó e Jacózinho - Preto e Branco
DYEAR=1965
DGENRE=Sertanejo
TTITLE0=Preto e branco
TTITLE1=Porta fechada
TTITLE2=Não é moleza
TTITLE3=Saudade também tem hora
TTITLE4=Peão da cidade
TTITLE5=Sei que não posso
TTITLE6=Canção do soldado
TTITLE7=Eu sou do lari larai
TTITLE8=Menina presa
TTITLE9=Rainha do Paraná
TTITLE10=Bom demais
TTITLE11=Corre corre
EXTD=
EXTT0=
EXTT1=
EXTT2=
EXTT3=
EXTT4=
EXTT5=
EXTT6=
EXTT7=
EXTT8=
EXTT9=
EXTT10=
EXTT11=
PLAYORDER=
